<svg version="1.1" id="Layer_1" xmlns="http://www.w3.org/2000/svg" xmlns:xlink="http://www.w3.org/1999/xlink" x="0px" y="0px"
	 width="100%" viewBox="0 0 1024 1024" enable-background="new 0 0 1024 1024" xml:space="preserve">
<path fill="#000000" opacity="1.000000" stroke="none" 
	d="
M346.922058,475.091980 
	C340.784149,472.451111 339.453552,465.916565 334.782715,461.778809 
	C332.403778,463.845367 331.578003,466.757812 330.295929,469.338226 
	C326.217194,477.547180 322.260498,479.490753 313.435333,477.332672 
	C312.034729,476.990173 311.040833,476.997375 309.780060,477.903961 
	C299.237396,485.484680 292.481934,483.119415 288.886993,470.697144 
	C288.706879,470.074829 288.466858,469.469879 288.156067,468.571686 
	C283.951447,468.957825 280.451630,470.662567 277.457977,473.353973 
	C264.915405,484.630127 250.364899,489.029724 233.622803,486.827362 
	C228.654404,486.173767 223.692856,487.444153 218.968765,489.186493 
	C218.081161,489.513824 216.859726,490.103729 216.621429,490.840576 
	C214.563507,497.203796 208.898361,498.652893 203.626816,500.671204 
	C200.362228,501.921143 197.090073,503.151459 193.829575,504.411926 
	C190.639908,505.645111 187.349838,506.323883 185.839752,502.319214 
	C184.420395,498.555176 187.232056,496.943451 190.236435,495.791687 
	C194.278595,494.242096 198.297623,492.627197 202.374008,491.173309 
	C205.669327,489.997986 206.506760,488.221161 205.415497,484.686005 
	C199.868973,466.717834 194.477142,448.699432 189.304596,430.620361 
	C188.135147,426.532867 186.308472,425.602722 182.483200,426.922424 
	C178.239944,428.386353 173.872223,429.488129 169.564194,430.766052 
	C166.720154,431.609680 164.038254,431.548126 162.972992,428.283905 
	C161.905899,425.014069 163.509186,422.741333 166.695892,421.779358 
	C173.229248,419.807098 179.800186,417.959229 186.360123,416.075714 
	C186.834686,415.939484 187.397583,415.755951 187.831848,415.886261 
	C198.424240,419.063721 204.333206,411.415680 210.399399,405.429993 
	C220.348724,395.612610 229.676041,385.153259 239.059418,374.778137 
	C245.015778,368.192230 250.712692,361.417999 260.077148,359.385895 
	C259.899597,355.923126 257.551117,354.057831 256.118225,351.734222 
	C253.378174,347.290863 249.262970,343.693542 249.205154,337.682312 
	C249.185303,335.617523 246.616531,333.563782 245.178696,331.528656 
	C240.545410,324.970612 241.347382,317.689392 247.179047,313.521484 
	C253.618088,308.919495 260.467834,310.309753 265.212952,317.277863 
	C267.175903,320.160431 268.817688,323.171814 272.614044,324.247955 
	C274.570831,324.802673 275.391418,326.989655 276.508148,328.648987 
	C282.924225,338.182495 289.417572,347.664215 295.792389,357.225098 
	C297.453613,359.716614 299.568451,361.202759 302.437714,362.089111 
	C313.249847,365.429169 323.926117,369.230316 334.803955,372.330048 
	C344.873047,375.199310 350.855255,381.039124 353.561035,391.458405 
	C357.320404,405.934937 362.460571,420.047211 366.725830,434.399750 
	C370.271912,446.332397 370.090515,446.386322 361.707764,455.218170 
	C366.205994,462.598633 366.053314,471.375854 368.527161,479.436340 
	C369.182831,481.572723 368.777802,483.432556 366.974396,484.793213 
	C364.906342,486.353607 362.915070,485.662445 360.981506,484.374878 
	C356.407074,481.328705 351.816620,478.306519 346.922058,475.091980 
M337.228943,433.305969 
	C333.030823,429.616516 327.974426,429.992462 322.986572,430.466217 
	C311.394531,431.567230 299.827759,432.946716 288.227997,433.949738 
	C280.763184,434.595245 273.575562,433.260193 267.239471,429.004272 
	C264.611023,427.238739 261.658325,424.987213 263.754852,421.291473 
	C265.838226,417.618958 268.845947,419.477509 271.561676,420.849823 
	C271.804962,420.972778 272.192474,420.810394 272.769928,420.756592 
	C274.998260,416.492371 275.197327,411.641602 276.039062,406.938019 
	C277.169373,400.621948 279.460907,399.369202 285.189819,401.735229 
	C287.177917,402.556305 289.138550,402.972626 291.487854,401.804504 
	C284.649506,392.098633 277.815369,382.866241 271.518127,373.281128 
	C267.883179,367.748322 265.033569,366.991943 257.955536,369.962494 
	C255.464874,371.007782 253.515793,372.884705 251.703964,374.863068 
	C245.293594,381.862793 239.054764,389.028595 232.447235,395.836700 
	C222.283203,406.309265 213.362228,418.232361 199.780670,424.854523 
	C197.746323,425.846466 197.855576,427.349609 198.365250,429.030273 
	C203.240555,445.106689 208.171478,461.166321 212.994308,477.258392 
	C213.729950,479.712982 214.998657,480.570984 217.381256,479.712677 
	C224.962402,476.981567 232.822250,477.507904 240.631668,477.843536 
	C250.725204,478.277313 259.919800,475.629791 267.606506,469.206970 
	C275.960297,462.226624 285.577271,458.590363 296.012299,456.566711 
	C307.773804,454.285889 319.614441,452.358673 331.287476,449.694061 
	C340.063995,447.690674 342.161346,441.858337 337.228943,433.305969 
M337.053864,418.420715 
	C338.394012,420.500641 338.972198,423.097626 341.002258,424.696960 
	C345.088715,427.916290 347.683319,431.993286 348.741608,437.105103 
	C349.227112,439.450226 350.784302,441.271912 352.300873,443.036591 
	C353.788391,444.767517 355.263458,447.157501 358.016052,445.675171 
	C360.772034,444.190979 359.622070,441.660736 358.943115,439.463837 
	C353.893127,423.122589 348.818176,406.789062 343.738556,390.457001 
	C342.925659,387.843353 341.650818,385.276581 339.143555,384.175110 
	C329.143707,379.781891 318.635345,376.909302 306.804291,373.384369 
	C312.613434,382.046844 317.567505,389.487488 322.607330,396.869598 
	C323.127899,397.632080 324.122620,398.479767 324.959503,398.550262 
	C329.926880,398.968903 331.380859,402.525421 332.653015,406.500183 
	C333.867279,410.294006 335.360382,413.998566 337.053864,418.420715 
M288.964325,363.496948 
	C282.333130,353.830322 275.701965,344.163727 269.127289,334.579529 
	C259.079895,340.182526 259.046570,340.205963 265.013000,348.686310 
	C281.006714,371.418884 297.056458,394.112030 313.026917,416.860901 
	C317.012787,422.538483 319.818756,423.243134 326.962555,419.294708 
	C314.412323,400.847900 301.902435,382.460327 288.964325,363.496948 
M300.284119,420.234314 
	C301.359528,421.889832 302.325714,423.810699 305.697479,421.662720 
	C301.523071,418.404510 301.576569,411.283813 294.680634,411.451752 
	C291.138214,411.537994 286.788910,409.570190 283.171417,414.014435 
	C289.565979,415.350403 295.888947,414.265717 300.284119,420.234314 
M256.479370,321.003113 
	C254.529785,319.862732 252.847763,320.331085 251.843277,322.213806 
	C250.458939,324.808563 252.536346,326.577606 253.825516,328.401428 
	C254.712616,329.656372 255.479843,331.777924 257.558258,330.853760 
	C259.789795,329.861511 262.445465,328.635406 260.015961,325.371643 
	C259.030273,324.047485 258.031525,322.733032 256.479370,321.003113 
M348.188751,452.602997 
	C347.540924,452.105621 346.819916,451.116028 346.258453,451.199493 
	C344.266876,451.495667 343.082764,453.262177 342.626038,454.862366 
	C341.898529,457.411316 344.125854,459.066437 345.611298,460.751709 
	C346.793976,462.093414 348.002289,460.968323 349.116394,460.265839 
	C353.080627,457.765991 353.023285,456.817596 348.188751,452.602997 
M318.408783,468.812469 
	C322.592865,467.922058 323.033142,464.389374 324.297943,460.745972 
	C321.899536,461.090485 319.926666,461.142822 318.111816,461.705231 
	C316.567413,462.183838 314.025696,461.736206 313.981445,464.300659 
	C313.941315,466.623749 315.165314,468.350525 318.408783,468.812469 
M301.162048,464.917938 
	C298.036224,465.472382 296.971375,467.452820 297.733643,470.341949 
	C298.169586,471.994171 299.318573,473.646484 301.230988,473.245575 
	C303.444122,472.781677 305.254974,471.064850 305.242798,468.757660 
	C305.233154,466.930389 305.445038,463.948090 301.162048,464.917938 
M284.520203,423.065521 
	C283.270630,423.510742 282.678040,424.323395 284.390808,424.635040 
	C286.322754,424.986511 288.367889,424.715973 290.363770,424.715973 
	C288.736511,422.796692 286.932373,423.085205 284.520203,423.065521 
M357.465424,468.061096 
	C355.175293,464.932861 354.577362,467.369781 353.802521,469.505249 
	C355.029449,468.804535 357.054413,474.087616 357.465424,468.061096 
z"/>
<path fill="#000000" opacity="1.000000" stroke="none" 
	d="
M606.859131,350.479187 
	C608.728455,353.994568 609.138184,357.401764 609.135010,360.964935 
	C609.085266,416.279022 609.089905,471.593170 609.061584,526.907288 
	C609.054993,539.869629 601.253296,547.975220 588.299133,547.991089 
	C538.983154,548.051331 489.666718,548.042969 440.351013,547.888733 
	C425.715729,547.843018 418.728027,540.452698 418.726562,525.843018 
	C418.719757,457.366638 418.710846,388.890228 418.717651,320.413849 
	C418.719147,305.404968 425.426880,298.639832 440.303741,298.634094 
	C476.291290,298.620178 512.278809,298.648865 548.266357,298.611786 
	C552.376831,298.607544 556.392700,298.941193 559.412842,302.012634 
	C575.176575,318.044037 591.665771,333.364227 606.859131,350.479187 
M598.703369,417.500031 
	C598.705139,399.834351 598.714661,382.168640 598.705078,364.502960 
	C598.700989,357.065094 597.914307,356.307190 590.289490,356.300018 
	C581.956604,356.292206 573.623535,356.330170 565.290771,356.299469 
	C556.649902,356.267670 552.754150,352.444611 552.700867,343.866364 
	C552.642944,334.533875 552.528687,325.196960 552.751465,315.869446 
	C552.868896,310.953308 550.874390,309.056152 546.027832,308.815430 
	C533.872681,308.211639 521.734375,308.791779 509.588684,308.797943 
	C486.771301,308.809509 463.953857,308.519684 441.136200,308.407257 
	C432.026123,308.362366 429.033661,311.326935 429.033051,320.227570 
	C429.028381,388.723969 429.029236,457.220398 429.040405,525.716797 
	C429.041901,534.995056 431.707703,537.696045 440.838043,537.697083 
	C489.335602,537.702637 537.833191,537.700256 586.330750,537.685486 
	C595.597229,537.682678 598.705750,534.610474 598.707397,525.494629 
	C598.713745,489.829773 598.705261,454.164917 598.703369,417.500031 
z"/>
<path fill="#000000" opacity="1.000000" stroke="none" 
	d="
M629.916504,225.022583 
	C653.544312,240.387634 672.628723,259.925018 688.628113,282.735870 
	C692.288025,280.987976 693.669861,277.789459 695.770630,275.337402 
	C698.027893,272.702850 700.477234,270.859985 703.949890,272.724304 
	C707.363586,274.556976 707.466492,277.465424 706.324402,280.895355 
	C703.536865,289.266693 700.994690,297.719360 698.303040,306.123047 
	C696.446472,311.919373 694.288147,313.015991 688.610352,311.124207 
	C680.398621,308.388123 672.211487,305.576996 663.983337,302.891266 
	C660.868652,301.874603 658.407593,300.396790 658.720093,296.669434 
	C659.032410,292.944336 661.708740,291.766510 664.948425,291.414795 
	C667.747192,291.110962 670.553101,290.872681 673.759277,290.566986 
	C673.137573,287.620605 671.056274,285.859650 669.500244,283.858032 
	C635.352478,239.931732 590.639832,214.340790 535.362061,208.328293 
	C482.098267,202.534851 434.003754,216.419952 391.760376,249.517212 
	C373.369080,263.926605 358.173553,281.323364 346.216095,301.466156 
	C345.450775,302.755341 344.723969,304.068298 343.929047,305.338745 
	C340.969238,310.069092 336.623077,311.604706 332.548553,309.385132 
	C328.478149,307.167816 327.343872,302.041565 330.105530,297.135254 
	C335.177917,288.123871 340.829285,279.477325 347.241547,271.354645 
	C380.106110,229.723892 422.715210,203.764923 474.753510,194.279999 
	C530.151550,184.182709 582.005615,194.303925 629.916504,225.022583 
z"/>
<path fill="#000000" opacity="1.000000" stroke="none" 
	d="
M361.571106,533.291931 
	C363.784180,534.184448 365.671600,534.855469 367.490540,535.678101 
	C370.060242,536.840210 371.353302,538.948547 370.889130,541.708191 
	C370.425049,544.466980 368.548157,546.062439 365.704590,546.280579 
	C362.892609,546.496277 360.065247,546.565002 357.108490,547.657288 
	C358.021942,551.393494 360.624023,554.074829 362.806091,556.834839 
	C395.125244,597.713745 437.213867,622.021606 488.793701,628.697205 
	C550.347473,636.663696 603.488525,617.748108 648.469604,575.465332 
	C660.789612,563.884399 670.855286,550.359253 679.250916,535.663940 
	C681.346497,531.995850 684.046570,529.538452 688.366150,530.021484 
	C694.460083,530.702942 697.047058,536.786499 693.824951,542.570557 
	C686.415833,555.871338 677.585999,568.187561 667.260315,579.353455 
	C633.547791,615.808960 592.042908,638.368103 542.921936,644.786621 
	C477.775360,653.299133 420.440826,634.793518 371.621826,590.556335 
	C361.443817,581.333618 352.766449,570.816467 344.892700,559.602905 
	C343.758667,557.987793 342.546021,556.427856 341.216492,554.635864 
	C337.991882,555.961487 336.730957,558.869873 334.743103,560.966919 
	C332.327667,563.515137 329.825867,565.878540 326.130554,563.662476 
	C322.669830,561.587097 323.417786,558.458008 324.462494,555.245361 
	C327.139313,547.013672 329.619324,538.718140 332.274139,530.479126 
	C333.858002,525.563721 336.077972,524.391052 340.949707,526.019348 
	C347.739380,528.288696 354.463043,530.755737 361.571106,533.291931 
z"/>
<path fill="#000000" opacity="1.000000" stroke="none" 
	d="
M837.966187,438.823975 
	C838.341553,450.507111 833.179688,459.494354 822.127380,461.421417 
	C819.566833,461.867920 819.477234,463.936523 818.948059,465.895630 
	C814.918518,480.814819 806.201538,491.712860 791.549072,497.407074 
	C786.363708,499.422272 780.938232,500.197235 775.405151,500.203156 
	C753.072449,500.227051 730.739746,500.245911 708.407104,500.215118 
	C686.104858,500.184387 669.416321,487.250397 664.107422,465.703430 
	C663.410583,462.875214 662.385071,461.676422 659.416138,461.013092 
	C651.328796,459.206146 646.309753,452.941345 645.579163,444.701904 
	C644.945312,437.553040 644.721863,430.412933 645.502075,423.249786 
	C646.424744,414.778717 651.180420,409.502625 659.134033,407.259491 
	C662.085327,406.427124 663.418091,405.249298 664.142395,402.190369 
	C668.963440,381.828735 686.705200,367.965271 707.756470,367.846588 
	C714.922668,367.806183 722.091736,367.938171 729.254517,367.774261 
	C731.830261,367.715393 735.629944,369.143311 736.203369,364.996399 
	C736.768372,360.910858 738.076233,356.464203 733.407104,353.239166 
	C727.102661,348.884674 724.769165,342.312378 726.690002,335.935333 
	C728.646118,329.441345 734.926941,324.749969 741.673218,324.743744 
	C747.885803,324.738007 753.913574,329.168457 756.073059,335.327667 
	C758.169067,341.306000 755.766785,348.866913 750.541748,352.737030 
	C746.827515,355.488098 744.996155,361.465729 746.427307,365.744385 
	C747.239624,368.172699 749.231689,367.777374 750.972961,367.792877 
	C758.638794,367.861176 766.305542,367.830231 773.971924,367.846130 
	C796.773743,367.893341 813.499634,380.839203 819.035889,402.854980 
	C819.567810,404.970001 820.182739,406.275299 822.531128,407.016754 
	C833.647217,410.526459 837.512634,415.730499 837.946228,427.351471 
	C838.082825,431.012817 837.968628,434.683502 837.966187,438.823975 
M789.627197,380.772766 
	C785.594238,379.053436 781.405151,378.129730 777.001709,378.132935 
	C753.337158,378.150146 729.671448,377.998779 706.008484,378.192169 
	C689.438843,378.327576 675.294983,390.508514 673.291565,406.922577 
	C671.209106,423.984283 671.479004,441.262451 672.923096,458.302948 
	C674.560425,477.623718 689.384521,490.544922 706.870911,490.387909 
	C729.531250,490.184509 752.203979,489.707550 774.851440,490.222015 
	C794.421265,490.666534 810.041687,475.853790 810.587708,454.540497 
	C810.933350,441.051025 810.875977,427.539093 810.552734,414.047943 
	C810.199036,399.284851 804.257141,387.660400 789.627197,380.772766 
M655.238037,424.200592 
	C655.198730,430.493805 655.025635,436.789978 655.166199,443.079163 
	C655.263123,447.414917 657.144958,450.546478 662.744507,451.299713 
	C662.744507,441.506195 662.805725,432.122650 662.690918,422.741302 
	C662.668884,420.946411 663.765869,418.256897 661.148743,417.597687 
	C658.726379,416.987549 657.393860,419.223602 656.247437,421.062592 
	C655.819885,421.748322 655.646545,422.592560 655.238037,424.200592 
M827.886902,440.233826 
	C827.845093,435.092896 827.921692,429.947388 827.724670,424.812408 
	C827.561707,420.567535 825.541626,417.722992 820.690491,416.995636 
	C820.690491,428.564392 820.690491,439.815399 820.690491,451.480957 
	C826.494019,449.833374 827.976868,446.023285 827.886902,440.233826 
M736.614746,338.202332 
	C736.108215,343.697388 739.243164,346.946747 743.293762,345.097656 
	C745.433105,344.121033 746.567749,342.393372 746.619812,340.045288 
	C746.664307,338.041077 745.680359,336.503723 743.903015,335.707825 
	C741.181580,334.489136 738.771057,334.981445 736.614746,338.202332 
z"/>
<path fill="#000000" opacity="1.000000" stroke="none" 
	d="
M580.957886,723.812622 
	C582.177490,724.599609 582.789978,725.801819 584.153137,725.634644 
	C586.060608,717.918274 586.060608,717.906128 594.548279,717.914856 
	C606.880920,717.927490 605.280029,717.052429 605.310120,728.544800 
	C605.367249,750.359253 604.988159,772.180298 605.395691,793.987244 
	C605.967407,824.573059 584.866394,837.839355 557.905090,836.853271 
	C545.845764,836.412109 534.691467,832.967590 525.262329,824.861328 
	C521.847229,821.925354 521.212341,819.576172 524.875549,816.458679 
	C527.649414,814.097961 529.704712,810.330322 532.833435,809.090454 
	C536.811096,807.514038 538.617737,812.628296 541.680664,814.363770 
	C552.198547,820.323364 562.992126,821.746887 574.146729,816.484741 
	C582.461243,812.562317 586.116760,803.453918 584.454102,791.575378 
	C582.657349,790.798706 581.781250,792.377686 580.671326,793.174683 
	C567.364807,802.731262 553.098877,802.692566 539.047424,795.949341 
	C525.518066,789.456665 518.683594,777.726318 517.679993,762.779846 
	C516.951294,751.927246 518.440918,741.594910 524.879761,732.317749 
	C537.134216,714.661316 563.567810,710.449036 580.957886,723.812622 
M584.790649,764.213745 
	C585.005981,763.238220 585.286255,762.271973 585.426758,761.285828 
	C586.861694,751.210144 581.719788,740.653748 573.308533,736.359070 
	C564.430847,731.826294 552.234985,733.147156 545.707764,739.348389 
	C538.684387,746.020874 536.342834,759.067810 540.449646,768.645935 
	C544.441895,777.956970 552.781494,783.126343 563.072571,782.668884 
	C573.617432,782.200134 581.130005,776.053223 584.790649,764.213745 
z"/>
<path fill="#000000" opacity="1.000000" stroke="none" 
	d="
M345.187256,796.725769 
	C344.840637,797.948792 344.717773,798.910889 344.171600,799.407043 
	C342.946289,800.520203 327.416870,800.875183 326.007660,799.933838 
	C324.114319,798.668945 324.701752,796.650574 324.694519,794.912842 
	C324.640442,781.921692 324.648254,768.930054 324.675140,755.938721 
	C324.681030,753.097534 324.449738,750.308716 323.902252,747.508850 
	C322.048401,738.027954 316.346497,733.395569 306.766632,733.749878 
	C296.737457,734.120850 289.671448,739.933960 289.276031,749.351929 
	C288.731567,762.320679 289.000000,775.323669 288.925964,788.311951 
	C288.913635,790.477051 288.866333,792.644775 288.948486,794.806946 
	C289.094940,798.660645 287.743225,800.755249 283.444153,800.420227 
	C279.967957,800.149414 276.442871,800.207947 272.958160,800.422974 
	C268.983398,800.668213 267.700806,798.880432 267.726013,795.099487 
	C267.823792,780.443359 267.842743,765.784973 267.692688,751.129517 
	C267.597595,741.844360 263.749207,736.431885 256.327942,734.406250 
	C243.716370,730.964050 232.604584,739.070129 232.328247,752.328186 
	C232.040237,766.146545 232.247269,779.975159 232.222168,793.799255 
	C232.210632,800.160278 232.037231,800.333374 225.872528,800.367554 
	C222.541580,800.386047 219.208817,800.292603 215.879715,800.370911 
	C212.951004,800.439758 211.643723,799.174133 211.648468,796.202881 
	C211.687866,771.552734 211.694321,746.902405 211.647308,722.252319 
	C211.641556,719.238037 213.105042,718.034302 215.888977,717.988464 
	C218.719803,717.941895 221.557190,718.027771 224.380707,717.864929 
	C229.188843,717.587463 233.334244,717.992371 232.372086,724.911743 
	C250.544998,712.489563 267.532318,711.977234 283.361023,728.024658 
	C284.710724,728.080994 285.388550,727.034851 286.216125,726.256531 
	C297.703796,715.451538 315.301208,712.669495 329.362946,719.623962 
	C338.516815,724.151245 342.841858,732.040955 344.326721,741.849487 
	C345.706635,750.964783 345.095337,760.127502 345.197449,769.271606 
	C345.297913,778.264526 345.219086,787.259399 345.187256,796.725769 
z"/>
<path fill="#000000" opacity="1.000000" stroke="none" 
	d="
M390.115601,716.749390 
	C398.885254,715.116516 407.132477,715.733948 415.274445,717.872375 
	C428.478027,721.340027 436.851807,731.220215 437.186951,744.877625 
	C437.603607,761.857666 437.292206,778.854736 437.395844,795.843872 
	C437.414978,798.978821 436.331207,800.502380 433.059052,800.359741 
	C430.233185,800.236511 427.397003,800.352295 424.565369,800.358948 
	C417.503357,800.375549 417.503357,800.374695 417.151886,792.655640 
	C407.997223,801.290894 397.106262,803.001587 385.473297,802.327209 
	C367.073120,801.260620 355.833679,785.289917 361.775452,768.493408 
	C363.824951,762.699768 367.753235,758.593506 373.156555,755.810913 
	C382.029755,751.241272 391.581482,750.403992 401.342316,750.636047 
	C404.838043,750.719177 408.338043,750.607666 411.835205,750.652283 
	C416.143829,750.707275 417.327118,748.448975 416.637909,744.539612 
	C415.603241,738.670837 410.778107,734.160767 404.145630,733.334229 
	C395.024017,732.197571 386.432648,733.118774 379.931244,740.667114 
	C377.859192,743.072876 375.775604,743.067200 373.457184,741.147583 
	C372.816132,740.616882 372.145050,740.121521 371.476135,739.625610 
	C362.934052,733.292114 362.918121,731.975159 371.164948,724.950012 
	C376.530945,720.379028 382.874512,718.070557 390.115601,716.749390 
M401.558136,765.029358 
	C396.228394,765.127625 390.893005,765.090332 386.010773,767.811646 
	C382.436035,769.804199 380.644836,772.880127 380.860962,776.824036 
	C381.079376,780.808289 383.304962,783.648987 387.115143,785.085449 
	C395.190033,788.129700 402.845032,786.916565 410.043182,782.516846 
	C414.666840,779.690796 416.655273,775.274475 416.970184,769.933472 
	C417.164490,766.637573 416.127380,764.858765 412.529572,765.006897 
	C409.204315,765.143921 405.868744,765.029846 401.558136,765.029358 
z"/>
<path fill="#000000" opacity="1.000000" stroke="none" 
	d="
M723.682739,775.999878 
	C723.438049,766.348938 724.385742,757.155212 723.180664,748.049988 
	C722.015808,739.248718 717.807129,735.073792 710.055847,734.190552 
	C699.553589,732.993835 692.226807,736.608398 688.990662,744.594299 
	C687.722778,747.722961 687.247314,750.972839 687.260254,754.354187 
	C687.311096,767.679871 687.147705,781.007874 687.346741,794.330688 
	C687.413879,798.825806 685.984131,800.818542 681.313354,800.410645 
	C678.007202,800.121887 674.647278,800.210815 671.326111,800.395264 
	C667.788696,800.591797 666.667847,798.974243 666.676086,795.636230 
	C666.736328,771.316528 666.737854,746.996521 666.649658,722.677002 
	C666.637024,719.197144 668.110962,717.850281 671.422913,717.932190 
	C674.085632,717.998108 676.765137,718.054321 679.414795,717.839294 
	C684.356445,717.438416 688.294861,718.080261 687.437988,724.441895 
	C689.307556,724.943420 690.173706,723.698975 691.179260,722.960083 
	C700.680664,715.978516 711.198242,714.266479 722.454590,717.180908 
	C735.701538,720.610596 743.541199,730.393799 744.049622,745.530945 
	C744.614075,762.336426 744.200500,779.173950 744.287842,795.997070 
	C744.304626,799.228577 742.872131,800.433655 739.736450,800.371826 
	C720.352844,799.989380 724.115051,803.248962 723.691650,785.494690 
	C723.620178,782.498047 723.682373,779.498230 723.682739,775.999878 
z"/>
<path fill="#000000" opacity="1.000000" stroke="none" 
	d="
M813.610840,724.312012 
	C818.590393,729.539429 818.590637,729.539673 813.682190,734.327881 
	C813.085999,734.909424 812.484253,735.485352 811.886536,736.065308 
	C806.583862,741.210999 806.652100,741.125366 800.709595,736.407104 
	C795.869568,732.564209 790.432373,730.963989 784.367615,733.250244 
	C781.152283,734.462341 779.068726,736.651917 779.011963,740.316711 
	C778.957642,743.824585 781.006775,745.898987 783.971924,747.100281 
	C786.741272,748.222107 789.639893,749.024048 792.478149,749.976929 
	C796.106934,751.195190 799.796936,752.261536 803.347290,753.677307 
	C814.909058,758.287537 819.451538,764.928589 819.384888,776.800293 
	C819.322693,787.879028 813.924561,796.277100 803.025696,799.964478 
	C789.479126,804.547607 776.138794,803.807922 763.815796,795.634888 
	C761.577515,794.150452 759.711426,792.273560 757.961914,790.235291 
	C756.116211,788.084961 755.860474,786.164429 758.226624,784.271179 
	C758.615845,783.959656 758.955688,783.587158 759.336792,783.264709 
	C762.001099,781.010376 764.339844,777.874756 767.418457,776.728394 
	C771.572205,775.181824 772.480896,780.573242 775.388794,782.241394 
	C780.767761,785.326965 786.135071,787.491394 792.433960,785.669189 
	C796.247009,784.566162 799.126892,782.500244 799.593018,778.307312 
	C800.078552,773.939087 797.432983,771.442627 793.715454,770.077209 
	C788.249634,768.069763 782.659607,766.402344 777.180054,764.430115 
	C764.720337,759.945496 758.545959,751.976196 758.966614,741.119324 
	C759.424622,729.298401 766.424133,720.840759 778.972229,717.379272 
	C791.483887,713.927917 803.002075,716.124146 813.610840,724.312012 
z"/>
<path fill="#000000" opacity="1.000000" stroke="none" 
	d="
M472.716064,717.899414 
	C479.467957,717.582825 478.042999,722.339661 478.333618,726.530640 
	C480.671936,724.704651 482.588959,723.058655 484.652710,721.623657 
	C491.079254,717.155212 498.169373,715.471802 505.949310,716.673950 
	C508.687347,717.096985 510.153564,718.457703 510.124725,721.287292 
	C510.114563,722.286316 510.198029,723.290161 510.127258,724.283875 
	C509.868011,727.924500 511.130035,732.141174 509.112549,735.070496 
	C506.645020,738.653320 502.363831,735.687378 498.922333,735.787231 
	C486.029022,736.161377 478.459900,743.407471 478.301483,756.421875 
	C478.147430,769.078003 478.100281,781.739807 478.316650,794.393738 
	C478.394989,798.974609 476.828308,800.800537 472.230133,800.422913 
	C468.755371,800.137634 465.237640,800.278442 461.742554,800.367798 
	C458.752899,800.444153 457.598969,799.086853 457.603943,796.150085 
	C457.645844,771.500671 457.646118,746.851013 457.585388,722.201599 
	C457.578003,719.203552 458.891937,717.954224 461.759003,717.959961 
	C465.256439,717.966980 468.753967,717.918091 472.716064,717.899414 
z"/>
<path fill="#000000" opacity="1.000000" stroke="none" 
	d="
M625.948486,746.000000 
	C625.966125,738.001404 626.047546,730.502136 625.966858,723.004578 
	C625.928101,719.407654 627.516602,717.811707 631.079895,717.888977 
	C634.577271,717.964844 638.085144,718.020203 641.575439,717.837097 
	C645.535583,717.629395 646.916687,719.570312 646.878601,723.246643 
	C646.737183,736.895447 646.851379,750.549683 646.509705,764.192810 
	C646.251221,774.515747 647.233032,784.816956 646.567871,795.154419 
	C646.296326,799.374573 644.778687,800.695068 640.812988,800.417603 
	C637.498291,800.185669 634.128784,800.168091 630.825256,800.487061 
	C626.418091,800.912659 625.894409,798.436279 625.907532,794.990723 
	C625.968872,778.827332 625.941345,762.663635 625.948486,746.000000 
z"/>
<path fill="#000000" opacity="1.000000" stroke="none" 
	d="
M366.784973,490.608002 
	C373.369202,490.450500 379.512604,490.249908 385.657562,490.169708 
	C387.301819,490.148193 389.009735,490.282471 390.583801,490.720917 
	C392.922211,491.372314 394.142822,493.155457 394.058350,495.588287 
	C393.977844,497.908844 392.455566,499.206665 390.339905,499.680542 
	C388.898224,500.003418 387.378265,500.082825 385.892731,500.087402 
	C372.259430,500.129486 358.626038,500.137146 344.992645,500.135834 
	C343.665741,500.135712 342.313599,500.146423 341.017090,499.910675 
	C338.202423,499.398956 336.534363,497.752960 336.738312,494.741760 
	C336.932648,491.873138 338.807251,490.875000 341.443695,490.629181 
	C349.746948,489.855042 358.044281,490.177216 366.784973,490.608002 
z"/>
<path fill="#000000" opacity="1.000000" stroke="none" 
	d="
M648.403320,698.094971 
	C643.572388,705.092651 637.044495,707.152893 630.595703,704.004150 
	C624.871826,701.209534 622.173462,694.566467 624.240784,688.358948 
	C626.486145,681.616699 633.822815,677.868164 640.687805,679.955750 
	C647.906189,682.150818 651.063538,689.276672 648.403320,698.094971 
z"/>
<path fill="#000000" opacity="1.000000" stroke="none" 
	d="
M524.909424,464.379639 
	C527.786987,458.044067 532.445740,455.392548 538.986389,455.491699 
	C549.477783,455.650757 559.972900,455.544830 570.465942,455.625366 
	C580.059082,455.699005 585.196777,460.870422 585.277344,470.513275 
	C585.337219,477.675201 585.376953,484.839386 585.265320,492.000092 
	C585.124268,501.046478 579.909058,506.168091 570.884460,506.319977 
	C568.886108,506.353607 566.863525,506.529175 564.892090,506.298187 
	C556.147766,505.273712 548.455444,506.846222 542.768188,514.334229 
	C541.463989,516.051392 539.553528,517.360596 537.080505,516.440247 
	C534.422791,515.451233 533.822571,513.117004 533.964783,510.743378 
	C534.169312,507.329010 532.943481,505.239960 529.847168,503.626831 
	C526.792236,502.035248 524.831177,499.154724 524.542236,495.601257 
	C523.706421,485.320923 523.198547,475.030396 524.909424,464.379639 
M574.852783,465.579407 
	C573.781189,464.712158 572.557739,464.250092 571.177795,464.250214 
	C560.044678,464.251068 548.910767,464.186462 537.778809,464.302887 
	C534.112122,464.341248 532.443115,466.852386 532.376099,470.219147 
	C532.230591,477.527985 532.305481,484.841339 532.300659,492.152832 
	C532.298828,495.025757 533.701355,497.251190 536.484131,497.489349 
	C539.991943,497.789581 541.673340,499.770386 542.577637,502.843292 
	C549.627625,497.769501 549.627625,497.768311 558.469788,497.762390 
	C562.291809,497.759827 566.115601,497.835358 569.935486,497.746307 
	C575.052185,497.627045 576.751343,495.935730 576.823303,490.751312 
	C576.913269,484.271759 576.850464,477.790009 576.839539,471.309204 
	C576.836426,469.473450 576.820129,467.628021 574.852783,465.579407 
z"/>
<path fill="#000000" opacity="1.000000" stroke="none" 
	d="
M478.965759,351.903381 
	C481.644073,347.673523 484.171112,343.761353 486.621552,339.801788 
	C488.365662,336.983551 490.897552,336.210754 493.927704,336.955322 
	C497.080841,337.730103 497.927307,340.247559 497.935669,343.091370 
	C497.965546,353.238037 497.947601,363.385132 497.886017,373.531677 
	C497.864685,377.050201 496.678864,380.040527 492.586517,379.947113 
	C488.331116,379.849976 487.804504,376.561218 487.804993,373.163544 
	C487.805786,368.031494 487.805206,362.899445 486.815735,357.363251 
	C484.634949,360.731049 482.517883,364.142334 480.257996,367.456177 
	C477.077911,372.119385 473.653931,372.101990 470.584991,367.406525 
	C468.421265,364.096069 466.406219,360.688507 463.298523,357.493164 
	C463.298523,362.883698 463.240326,368.275085 463.319733,373.664459 
	C463.369720,377.059692 462.472351,379.865143 458.603729,379.935699 
	C454.783447,380.005432 453.610901,377.335510 453.621124,373.888184 
	C453.651794,363.574432 453.656708,353.260437 453.627533,342.946686 
	C453.619934,340.256256 454.127258,337.824738 457.051636,337.013184 
	C460.041687,336.183472 462.615753,336.932556 464.385803,339.752838 
	C467.817352,345.220337 471.307434,350.651093 474.690460,355.967010 
	C477.444122,355.690002 477.692841,353.528320 478.965759,351.903381 
z"/>
<path fill="#000000" opacity="1.000000" stroke="none" 
	d="
M503.000000,410.253998 
	C489.011444,410.250214 475.522919,410.252686 462.034363,410.233643 
	C460.539581,410.231537 458.996033,410.320251 457.561127,409.991364 
	C455.036774,409.412750 453.421844,407.772858 453.540558,405.037964 
	C453.661285,402.257233 455.396088,400.833679 458.068634,400.676666 
	C462.553436,400.413177 467.045471,400.117737 471.534851,400.111877 
	C502.341888,400.071777 533.148987,400.093506 563.956116,400.133698 
	C566.108704,400.136505 568.300110,400.250641 570.402771,400.668762 
	C572.724976,401.130615 574.263916,402.624237 574.229797,405.200867 
	C574.196350,407.732758 572.668640,409.265564 570.397827,409.811401 
	C568.648071,410.231995 566.769470,410.219574 564.947876,410.222290 
	C544.465271,410.252655 523.982605,410.248688 503.000000,410.253998 
z"/>
<path fill="#000000" opacity="1.000000" stroke="none" 
	d="
M486.999939,433.371704 
	C477.679047,433.363220 468.858093,433.333344 460.037323,433.356567 
	C456.807648,433.365082 453.672729,432.978973 453.623718,428.901672 
	C453.574005,424.769012 456.561035,423.752960 460.106232,423.753448 
	C486.402435,423.757172 512.698608,423.763672 538.994812,423.744354 
	C542.524475,423.741760 545.637268,424.665283 545.676819,428.721771 
	C545.718933,433.044800 542.351624,433.376160 538.927307,433.368927 
	C521.784973,433.332733 504.642426,433.363861 486.999939,433.371704 
z"/>
<path fill="#000000" opacity="1.000000" stroke="none" 
	d="
M460.428680,447.022400 
	C475.032043,446.977234 489.181671,446.942566 503.331268,446.932129 
	C504.657990,446.931152 506.010742,446.946594 507.306213,447.192505 
	C510.006805,447.705292 512.056519,449.161163 512.010437,452.133942 
	C511.964752,455.080536 509.937256,456.491852 507.202148,456.982086 
	C506.713287,457.069702 506.208466,457.102631 505.710968,457.102875 
	C490.396088,457.110291 475.081177,457.128601 459.766357,457.097656 
	C456.398193,457.090851 453.693115,455.873199 453.749146,452.007721 
	C453.805847,448.095703 456.730927,447.241028 460.428680,447.022400 
z"/>
<path fill="#000000" opacity="1.000000" stroke="none" 
	d="
M475.000885,480.268311 
	C469.516968,480.259460 464.532837,480.245056 459.548706,480.242798 
	C456.144501,480.241241 453.466034,479.083527 453.497742,475.248108 
	C453.527740,471.626892 456.112427,470.657776 459.326843,470.660004 
	C474.777679,470.670715 490.228546,470.659760 505.679260,470.609375 
	C509.046387,470.598389 511.953522,471.517303 512.000061,475.317108 
	C512.050720,479.460480 508.904053,480.288635 505.405548,480.280029 
	C495.437317,480.255524 485.468964,480.269257 475.000885,480.268311 
z"/>
<path fill="#000000" opacity="1.000000" stroke="none" 
	d="
M500.824066,494.841370 
	C503.057922,496.617737 503.721344,498.520752 502.686401,500.818481 
	C501.724274,502.954437 499.864319,503.421692 497.729156,503.417847 
	C484.755035,503.394318 471.780914,503.391785 458.806793,503.387177 
	C455.923615,503.386169 453.919128,502.258698 453.729584,499.144043 
	C453.544281,496.099365 455.360718,494.144287 458.131500,494.122375 
	C472.238953,494.010681 486.365234,492.977600 500.824066,494.841370 
z"/>
<path fill="#000000" opacity="1.000000" stroke="none" 
	d="
M784.555786,407.115662 
	C793.058411,411.248688 797.036926,417.881348 797.241577,426.831604 
	C797.351990,431.661133 797.349854,436.496155 797.271240,441.326599 
	C797.076477,453.295258 788.158569,462.811981 776.144836,462.959808 
	C753.321838,463.240601 730.490540,463.231476 707.667236,462.959686 
	C694.620850,462.804321 685.997620,453.649261 685.756653,440.592499 
	C685.679749,436.428223 685.690491,432.261688 685.711609,428.096436 
	C685.780396,414.509277 694.441223,405.169159 707.981384,404.994751 
	C729.971191,404.711456 751.967346,404.886810 773.960632,404.939240 
	C777.469421,404.947632 780.906494,405.679657 784.555786,407.115662 
M762.127502,433.601929 
	C762.191650,435.414368 762.023743,437.272156 762.367676,439.029877 
	C763.103455,442.790802 767.191772,444.647339 770.375000,442.839783 
	C774.947937,440.243103 775.442810,428.609894 771.069519,425.704620 
	C769.356323,424.566559 767.548645,424.016846 765.490173,425.089630 
	C762.278015,426.763702 762.091003,429.675629 762.127502,433.601929 
M711.192444,442.064331 
	C714.839600,444.527222 718.187988,443.679230 719.914612,440.028442 
	C721.692078,436.270203 721.291992,431.914246 720.048828,427.953552 
	C719.304626,425.582611 716.938293,424.437012 714.499390,424.523834 
	C711.990845,424.613129 709.879944,426.137390 709.523499,428.625885 
	C708.901855,432.966003 707.957764,437.460846 711.192444,442.064331 
z"/>
<path fill="#000000" opacity="1.000000" stroke="none" 
	d="
M546.268921,471.672516 
	C552.861755,471.674500 558.986267,471.690887 565.110718,471.681549 
	C567.631409,471.677704 569.974060,472.155701 570.119202,475.195587 
	C570.277100,478.505096 567.931519,479.279419 565.150024,479.282349 
	C558.694336,479.289124 552.238281,479.333954 545.783020,479.284241 
	C543.021362,479.262970 539.549805,479.760223 539.591675,475.553589 
	C539.631836,471.530701 542.945862,471.738678 546.268921,471.672516 
z"/>
<path fill="#000000" opacity="1.000000" stroke="none" 
	d="
M542.121948,490.584351 
	C539.763916,489.489624 539.274780,487.853241 539.799744,485.881866 
	C540.303223,483.991333 541.904541,483.333130 543.602112,483.213165 
	C547.895386,482.909790 552.203369,482.760223 556.485352,483.398743 
	C558.475220,483.695526 559.981384,484.725006 560.052063,486.880219 
	C560.130859,489.281433 558.524170,490.582428 556.368530,490.808380 
	C551.755615,491.291901 547.118835,491.215179 542.121948,490.584351 
z"/>
</svg>