<svg version="1.1" id="Layer_1" xmlns="http://www.w3.org/2000/svg" xmlns:xlink="http://www.w3.org/1999/xlink" x="0px" y="0px"
	 width="100%" viewBox="0 0 1024 768" enable-background="new 0 0 1024 768" xml:space="preserve">
<path fill="#1e293b" opacity="1.000000" stroke="none" 
	d="
M311.393494,370.874908 
	C307.387878,368.444397 306.476898,364.311584 304.714508,361.081757 
	C303.097626,360.489746 302.174927,361.357269 301.221008,361.948334 
	C287.395325,370.515045 272.696289,371.262939 257.463074,366.750092 
	C251.372604,364.945770 245.261230,363.418304 238.867462,363.358002 
	C235.642349,363.327606 233.769180,361.693420 233.792053,358.493073 
	C233.815384,355.227844 235.949615,353.887848 239.026733,353.693787 
	C245.096344,353.310974 250.971725,354.153870 256.714630,356.164825 
	C273.967010,362.205994 289.716217,360.121704 303.841919,347.845673 
	C312.351837,340.450104 322.330658,338.376587 333.303986,341.176483 
	C337.659454,342.287811 342.043152,343.294434 346.433014,344.262634 
	C349.062653,344.842651 351.700165,344.962982 354.292358,343.904388 
	C357.325989,342.665466 359.245148,340.516510 359.638123,337.249084 
	C360.037292,333.929871 358.661835,331.011932 355.786469,329.700043 
	C346.267395,325.357025 336.811707,320.632935 326.012848,320.283173 
	C318.663086,320.045135 311.436127,318.934814 304.277283,317.308411 
	C300.841431,316.527832 298.081726,314.877808 298.892365,310.897247 
	C299.705566,306.904175 302.683014,306.501160 306.286835,307.293610 
	C309.301636,307.956543 312.337646,309.060516 315.445679,308.589722 
	C316.129669,306.775970 315.017487,305.762665 314.327393,304.719818 
	C308.902130,296.521454 303.273102,288.454102 298.008148,280.155212 
	C295.576355,276.322113 292.903442,276.016937 289.226593,277.984619 
	C284.292572,280.625122 280.556793,284.697083 276.456604,288.333374 
	C270.100647,293.970184 263.832153,299.705811 257.463806,305.328430 
	C252.198349,309.977264 246.010422,311.892029 238.995911,311.404602 
	C235.866974,311.187195 233.794159,309.923737 233.778931,306.647430 
	C233.763824,303.398010 235.847626,301.726135 238.917236,301.769897 
	C244.837662,301.854248 249.445496,299.240723 253.642258,295.405823 
	C261.391571,288.324646 269.189728,281.296356 277.016663,274.300964 
	C278.872253,272.642517 280.715363,270.734467 282.925018,269.756104 
	C287.750946,267.619324 288.089630,265.099579 284.973969,261.074066 
	C281.921997,257.130829 279.325562,252.829926 276.601837,248.638809 
	C272.184845,241.842163 273.974396,233.451248 280.736389,228.977737 
	C287.798676,224.305557 295.914398,225.514130 300.550232,232.260437 
	C306.021973,240.223190 311.393311,248.268585 316.436707,256.505585 
	C318.552460,259.960999 321.081146,261.721191 324.965790,261.026093 
	C341.088470,258.141083 350.714966,266.435181 360.691803,278.179504 
	C374.614166,294.568420 382.105957,313.632111 389.573242,332.998962 
	C392.672028,341.035889 390.717377,345.866760 382.637756,352.477112 
	C389.588623,360.531952 389.209473,371.082764 391.830902,380.721344 
	C392.590485,383.514191 392.996185,386.394012 390.036407,388.365448 
	C387.203705,390.252289 384.944092,388.480499 382.720123,387.052856 
	C377.392517,383.632935 372.222504,379.954041 366.783752,376.725189 
	C362.723236,374.314514 361.720978,369.320435 357.361511,366.464508 
	C353.783508,370.286011 350.112701,374.261139 344.363678,374.628296 
	C338.629639,374.994446 334.617218,371.897675 330.845551,367.539856 
	C325.016266,371.860687 318.995636,375.431671 311.393494,370.874908 
M330.180420,277.422211 
	C338.826752,290.432709 347.488861,303.432800 356.100281,316.466400 
	C357.229462,318.175476 358.567871,319.500305 360.364044,320.524109 
	C365.575714,323.494720 368.953369,327.801880 369.369385,333.985504 
	C369.501007,335.942413 370.356110,337.487396 371.554993,338.891663 
	C373.465332,341.129303 375.267242,344.296173 378.837036,342.162750 
	C381.982544,340.282928 380.853241,337.192535 379.788574,334.549744 
	C376.250092,325.766296 372.602081,317.026886 368.984406,308.275452 
	C367.655548,305.060852 366.517426,301.795319 364.222290,299.019409 
	C358.503693,292.102783 352.925293,285.069275 347.343567,278.040619 
	C341.622070,270.835907 336.539276,269.277069 327.358917,272.065582 
	C327.380127,274.057129 329.003723,275.237366 330.180420,277.422211 
M320.707550,362.346497 
	C324.317474,359.479858 326.348572,355.695007 327.548035,351.303375 
	C324.949432,349.611023 322.382416,349.969849 320.089142,350.570465 
	C316.248779,351.576294 315.382660,354.973572 315.277008,358.373749 
	C315.184204,361.360870 316.848602,362.971100 320.707550,362.346497 
M341.639435,363.709961 
	C346.723663,364.826935 349.188202,362.301361 349.829041,355.233734 
	C347.887787,353.738586 345.408081,354.343994 343.224121,353.707916 
	C339.311554,352.568268 338.126831,354.786865 338.327362,358.238159 
	C338.448364,360.320374 339.385620,362.030792 341.639435,363.709961 
z"/>
<path fill="#1e293b" opacity="1.000000" stroke="none" 
	d="
M581.301758,340.000061 
	C581.292969,354.497772 581.325012,368.495697 581.261169,382.493164 
	C581.210266,393.664490 574.713379,400.122131 563.470947,400.135529 
	C530.143005,400.175232 496.815094,400.168457 463.487183,400.156311 
	C451.908112,400.152100 445.528351,394.149475 445.011292,382.539368 
	C444.752014,376.717957 444.917969,370.876892 444.917572,365.044739 
	C444.914703,322.218414 444.897156,279.392059 444.932373,236.565796 
	C444.943726,222.743271 451.720490,216.713547 465.596161,217.141846 
	C487.732086,217.825104 509.881470,217.795288 532.022095,217.170883 
	C537.143188,217.026474 541.326721,218.333054 544.971375,222.227631 
	C555.444275,233.418823 566.112488,244.429642 576.829102,255.388931 
	C579.934387,258.564545 581.389832,261.989288 581.362122,266.512360 
	C581.213135,290.840790 581.297424,315.170654 581.301758,340.000061 
M534.523315,260.456818 
	C533.164978,251.512543 533.956482,242.509903 534.011230,233.544479 
	C534.040955,228.670181 532.789551,226.842758 527.565979,226.911804 
	C506.585358,227.189087 485.598846,227.036240 464.614532,227.014984 
	C455.933685,227.006195 454.396179,228.475128 454.392212,237.103455 
	C454.381714,259.919891 454.386993,282.736298 454.384796,305.552734 
	C454.382355,330.867310 454.359467,356.181885 454.388306,381.496429 
	C454.395905,388.178070 456.435181,390.713379 462.075653,390.721344 
	C496.216949,390.769623 530.358398,390.762848 564.499634,390.692596 
	C569.609497,390.682098 571.821716,388.433502 571.828186,383.314606 
	C571.875305,345.842560 571.818359,308.370392 571.885254,270.898438 
	C571.891357,267.464996 570.676636,266.157959 567.211792,266.230743 
	C559.387756,266.395172 551.557373,266.228363 543.730530,266.299072 
	C539.714722,266.335358 536.568054,265.046356 534.523315,260.456818 
z"/>
<path fill="#2f6fed" opacity="1.000000" stroke="none" 
	d="
M521.840759,155.286774 
	C481.303009,153.621017 444.005646,162.715179 410.051056,184.293594 
	C390.561462,196.679398 374.208038,212.445587 361.147095,231.551102 
	C360.677155,232.238525 360.260071,232.964630 359.758698,233.627640 
	C357.598755,236.483963 354.840576,237.807465 351.509247,235.943405 
	C347.906128,233.927277 347.624573,230.538101 349.338745,227.276596 
	C352.213379,221.807175 356.088135,216.962051 360.002991,212.202713 
	C392.918610,172.186966 435.473724,149.125519 486.601440,143.200592 
	C542.808777,136.687027 593.650269,150.608307 637.245605,187.783386 
	C644.846252,194.264725 651.597900,201.630249 658.202942,209.138992 
	C661.032471,208.184830 661.669678,205.390640 663.573181,203.866394 
	C665.138000,202.613251 666.733459,202.004791 668.637634,202.755417 
	C670.357178,203.433243 671.159424,204.804565 671.313293,206.627533 
	C671.971008,214.418747 672.838257,222.197891 673.261902,230.001373 
	C673.588196,236.013092 671.558472,237.565536 665.796631,236.338165 
	C659.284912,234.951035 652.781006,233.524200 646.293091,232.030273 
	C643.874756,231.473434 641.241760,231.018234 640.780273,227.830856 
	C640.348694,224.849808 642.175598,223.277390 644.409119,221.865417 
	C645.788269,220.993546 647.465942,220.469620 648.791809,218.131134 
	C615.758179,179.017883 573.059021,159.194687 521.840759,155.286774 
z"/>
<path fill="#13b981" opacity="1.000000" stroke="none" 
	d="
M631.787109,414.774414 
	C637.791504,409.689606 643.034973,404.343231 648.008545,398.717529 
	C651.161194,395.151459 654.837097,394.384003 657.535339,396.868103 
	C660.894836,399.961060 660.397156,403.187469 657.610352,406.518555 
	C639.520020,428.142029 617.326233,444.226196 591.497437,455.310455 
	C554.237244,471.300354 515.612122,475.774658 475.654175,468.684967 
	C442.154480,462.741150 412.133972,449.260040 385.873901,427.540253 
	C384.734863,426.598206 383.503052,425.768250 382.272552,424.854980 
	C379.974243,426.173340 379.354492,428.579407 377.981720,430.381958 
	C376.703339,432.060638 375.281891,433.425140 373.005646,433.053192 
	C370.716003,432.679077 369.652435,430.979095 369.245361,428.893158 
	C367.716278,421.057587 366.080505,413.236786 364.821472,405.356659 
	C363.974548,400.055756 366.307159,398.065186 371.846008,398.862091 
	C378.596069,399.833252 385.335510,400.878845 392.076477,401.912201 
	C394.268372,402.248199 396.438843,402.738312 397.146332,405.260773 
	C397.896912,407.936859 396.429474,409.687408 394.468811,411.199310 
	C393.431549,411.999146 392.449371,412.870422 390.656372,414.364288 
	C414.832977,436.430023 443.153015,449.508148 474.444336,455.209351 
	C532.671997,465.818298 585.515991,453.228088 631.787109,414.774414 
z"/>
<path fill="#1e293b" opacity="1.000000" stroke="none" 
	d="
M760.282715,296.734009 
	C778.546753,314.161163 778.259155,352.544373 765.356506,368.955353 
	C755.216003,381.853088 742.427368,388.964417 725.999878,389.146484 
	C712.509094,389.296051 699.015442,389.187378 685.523071,389.195190 
	C657.810669,389.211273 636.204773,367.544495 635.849548,339.739197 
	C635.672913,325.910950 637.659058,312.864258 646.430725,301.577606 
	C656.259399,288.930878 669.222900,282.529297 685.142883,281.957581 
	C687.804504,281.861969 690.485596,282.113220 693.134216,281.905304 
	C695.743042,281.700500 699.543762,283.192230 700.267273,279.281982 
	C700.982178,275.418304 701.881897,271.392334 697.133362,268.327637 
	C689.609070,263.471497 688.657410,253.618744 694.345642,246.915482 
	C699.701965,240.603333 709.319336,240.302002 715.211670,246.261719 
	C721.137024,252.254852 720.478821,262.348785 713.728638,267.951447 
	C711.847412,269.512909 709.718628,270.496033 709.473694,273.599213 
	C708.870483,281.242981 709.358826,282.255676 716.991150,281.886047 
	C733.313354,281.095581 748.120789,284.428131 760.282715,296.734009 
M646.016052,324.569580 
	C644.604797,330.666626 645.032898,336.866791 645.369751,342.992920 
	C646.493469,363.428375 663.873352,379.740265 684.266602,379.762360 
	C698.265869,379.777527 712.265259,379.791351 726.264282,379.734589 
	C741.027344,379.674713 752.122742,373.031708 759.666992,360.514130 
	C766.099609,349.840973 766.588257,338.204651 764.823486,326.195282 
	C761.845398,305.929962 745.316895,291.423035 724.843262,291.377319 
	C712.343994,291.349396 699.822815,291.831055 687.350281,291.250580 
	C668.352478,290.366364 650.447144,304.105225 646.016052,324.569580 
z"/>
<path fill="#1e293b" opacity="1.000000" stroke="none" 
	d="
M415.552795,534.765015 
	C417.252472,515.157715 439.685089,502.578522 458.589264,515.932739 
	C460.607361,512.364197 470.898804,509.917664 474.072449,512.263367 
	C475.317841,513.183838 475.263611,514.585449 475.262390,515.903931 
	C475.246704,532.729126 475.668091,549.571655 475.037750,566.374390 
	C474.481049,581.213196 465.597443,590.115540 450.896820,592.472107 
	C440.608398,594.121460 431.076904,592.230469 422.093719,586.998657 
	C418.783508,585.070740 418.012543,582.914795 420.390167,579.758179 
	C421.286346,578.568298 421.985229,577.219360 422.691254,575.898682 
	C424.426483,572.652832 426.508698,572.245911 429.474396,574.576111 
	C433.994720,578.127686 439.328735,579.213318 444.990295,579.050049 
	C454.835114,578.766174 460.114380,572.835632 459.311218,562.169739 
	C447.815369,570.205078 436.144836,570.737305 425.276245,562.034973 
	C416.866730,555.301575 413.987823,545.879456 415.552795,534.765015 
M431.300323,538.641418 
	C431.590271,550.548462 441.694519,557.471252 451.722015,552.632996 
	C458.217041,549.499146 461.244690,542.473206 459.369537,534.886108 
	C457.741180,528.297546 451.839630,524.029907 444.830444,524.372437 
	C437.288544,524.741028 432.704651,529.300537 431.300323,538.641418 
z"/>
<path fill="#1e293b" opacity="1.000000" stroke="none" 
	d="
M540.416626,564.307007 
	C540.716675,568.164795 539.231506,569.470703 535.765442,569.438782 
	C522.937500,569.320312 524.941650,570.354980 524.785950,559.062256 
	C524.682678,551.569153 524.812195,544.072388 524.674744,536.580261 
	C524.530029,528.695190 520.745728,524.646606 513.695435,524.533630 
	C506.694031,524.421448 502.312805,528.911377 502.168762,536.741394 
	C502.003418,545.731812 501.962433,554.729309 502.129639,563.718811 
	C502.206573,567.856018 501.097046,569.744812 496.486786,569.498230 
	C485.891327,568.931580 485.740601,571.510986 486.193451,558.846924 
	C486.919647,538.538574 486.018219,518.251587 486.109772,497.955841 
	C486.141022,491.032227 486.352295,490.894562 493.039032,490.838959 
	C494.204773,490.829254 495.382904,490.929932 496.534058,490.796478 
	C500.621124,490.322662 502.279938,492.035400 502.150726,496.179382 
	C501.950806,502.591278 502.097961,509.013947 502.097961,516.400146 
	C508.503754,512.036865 514.457520,509.903748 521.228027,510.497925 
	C531.913635,511.435699 539.578796,518.281128 540.139648,528.923401 
	C540.751770,540.540222 540.376404,552.209106 540.416626,564.307007 
z"/>
<path fill="#1e293b" opacity="1.000000" stroke="none" 
	d="
M787.481689,519.486816 
	C782.859009,524.313049 778.584656,528.991577 774.061401,533.415649 
	C771.664368,535.760132 771.619019,537.536621 773.745056,540.155762 
	C780.149048,548.044617 786.334595,556.112183 792.521423,564.174500 
	C793.576843,565.549805 795.278442,566.663330 795.110596,569.385071 
	C789.698730,569.385071 784.289124,569.447937 778.882324,569.351318 
	C776.967285,569.317139 776.216980,567.530823 775.219788,566.235168 
	C770.365540,559.927246 765.530823,553.604309 760.674255,547.267212 
	C756.751526,548.954285 755.033203,551.418884 755.336060,555.243042 
	C755.440979,556.567932 755.359192,557.907959 755.356262,559.241028 
	C755.333008,570.053223 753.896423,571.155029 742.990601,569.408386 
	C739.562561,568.859314 739.855408,566.497253 739.844910,564.203430 
	C739.795288,553.372192 739.795654,542.540710 739.790405,531.709290 
	C739.784790,520.044739 739.922363,508.377930 739.725891,496.716705 
	C739.655273,492.527557 740.830322,490.680328 745.350464,490.773499 
	C756.920959,491.011902 755.239990,490.103424 755.329590,500.649719 
	C755.414124,510.610504 755.347778,520.572571 755.347778,531.315979 
	C759.632507,529.017639 761.627014,525.469482 764.500610,522.925964 
	C765.744690,521.824707 767.081360,520.708496 767.960510,519.333435 
	C774.197998,509.577179 783.597473,511.343536 793.158142,512.116028 
	C792.433167,515.623901 789.443604,516.957825 787.481689,519.486816 
z"/>
<path fill="#1e293b" opacity="1.000000" stroke="none" 
	d="
M616.168335,526.453796 
	C624.101685,512.769470 637.882080,507.299561 652.069946,511.717957 
	C667.096497,516.397461 671.521179,530.333862 671.195374,541.704712 
	C671.100708,545.009460 668.994812,545.332764 666.450684,545.329407 
	C656.134766,545.315918 645.818665,545.311157 635.502991,545.364746 
	C633.725342,545.373962 631.850952,544.916504 630.187805,545.971375 
	C631.286560,554.618042 640.511963,559.358887 650.078796,556.218445 
	C651.022156,555.908752 651.932495,555.475159 652.821045,555.025635 
	C659.984558,551.401306 661.279602,551.657593 666.909058,557.281372 
	C668.733948,559.104431 668.657104,560.449463 666.905273,562.305908 
	C658.847351,570.845032 642.337341,573.523071 630.103149,568.141846 
	C619.301025,563.390503 612.423096,551.662048 613.248718,539.395813 
	C613.540588,535.060242 614.219849,530.808044 616.168335,526.453796 
M650.070007,533.769470 
	C651.596924,533.508911 653.475464,534.331970 654.457520,532.395569 
	C652.666382,526.456604 648.432190,523.739136 641.594727,524.103577 
	C635.488281,524.429016 631.571533,527.607544 630.309631,533.781677 
	C636.670898,533.781677 642.919006,533.781677 650.070007,533.769470 
z"/>
<path fill="#1e293b" opacity="1.000000" stroke="none" 
	d="
M344.746765,533.763306 
	C346.903229,550.220459 341.095490,562.321472 328.649750,567.971802 
	C315.312103,574.026917 299.786865,571.249023 290.726196,560.583435 
	C282.226898,550.578552 281.456451,538.978027 286.452820,527.306335 
	C291.159027,516.312500 300.380859,511.037628 312.166107,510.635864 
	C329.417542,510.047760 340.684204,518.077515 344.746765,533.763306 
M304.618195,552.906677 
	C309.582275,557.111938 315.048981,557.731079 320.916412,555.106506 
	C326.818848,552.466248 328.858398,547.265015 329.458435,541.397949 
	C330.261383,533.546143 324.477081,526.141968 317.062378,525.124390 
	C308.177307,523.905029 302.153198,528.115173 300.089752,536.656494 
	C298.629578,542.700623 300.206421,547.801270 304.618195,552.906677 
z"/>
<path fill="#1e293b" opacity="1.000000" stroke="none" 
	d="
M375.735718,571.022095 
	C361.109772,570.572266 353.985535,563.644043 353.105438,548.239624 
	C352.498077,537.609192 352.985046,526.917786 352.919800,516.254028 
	C352.899017,512.858521 354.421906,511.700409 357.807098,511.628632 
	C369.096527,511.389099 369.089325,511.275909 369.098022,522.485352 
	C369.103943,530.150146 368.978210,537.818970 369.183441,545.478638 
	C369.371002,552.480530 372.438873,556.004456 378.264099,556.555054 
	C384.009186,557.098145 389.212341,553.235352 390.829193,547.351196 
	C392.228668,542.258057 391.467163,537.075623 391.594360,531.934143 
	C391.726196,526.604797 391.704163,521.269165 391.625793,515.938110 
	C391.583405,513.054382 392.662750,511.497284 395.705353,511.704437 
	C395.870972,511.715698 396.038666,511.704254 396.205017,511.695923 
	C407.259277,511.142578 407.259735,511.142517 407.260773,522.069946 
	C407.262085,536.067566 407.153351,550.066528 407.331909,564.061890 
	C407.383636,568.115295 406.176727,570.018066 401.930939,569.443420 
	C400.458374,569.244080 398.935638,569.428284 397.436096,569.412598 
	C394.411926,569.380981 390.937073,570.054077 391.621918,564.392151 
	C386.413269,568.375732 381.567810,570.403442 375.735718,571.022095 
z"/>
<path fill="#1e293b" opacity="1.000000" stroke="none" 
	d="
M589.693604,552.998108 
	C589.675171,547.003662 589.848694,541.499207 589.591370,536.014954 
	C589.237976,528.483521 585.178955,524.413330 578.556274,524.485718 
	C571.679810,524.560852 567.344727,528.967651 567.219666,536.371338 
	C567.067749,545.361938 567.001709,554.359131 567.177551,563.347961 
	C567.262329,567.681702 566.091187,569.688049 561.257385,569.487122 
	C550.297363,569.031677 551.043213,571.018311 550.977600,559.305847 
	C550.905762,546.483093 550.936951,533.659607 550.944092,520.836487 
	C550.949219,511.613190 550.964417,511.661224 560.385315,511.655548 
	C563.479187,511.653687 566.446716,511.611389 567.772217,515.762390 
	C573.015198,512.160950 578.330444,510.354156 584.411072,510.529785 
	C596.908142,510.890778 604.795532,518.025696 605.203247,530.644653 
	C605.579407,542.290039 605.252625,553.956970 605.338928,565.613647 
	C605.359253,568.359375 604.388794,569.493469 601.552124,569.447266 
	C587.628723,569.220093 589.899170,570.915771 589.693970,558.493286 
	C589.666443,556.828369 589.692322,555.162476 589.693604,552.998108 
z"/>
<path fill="#1e293b" opacity="1.000000" stroke="none" 
	d="
M728.572266,518.409180 
	C732.687622,521.888062 732.082458,524.378418 727.996460,527.098877 
	C724.030579,529.739319 721.217651,532.618530 716.257141,527.656677 
	C711.321472,522.719543 701.819824,524.301147 697.253113,529.369568 
	C691.995300,535.205017 691.874451,545.693726 696.998840,551.449219 
	C702.279480,557.380188 710.166626,558.103271 716.828125,553.447205 
	C718.583740,552.220093 719.658386,548.942261 722.471924,550.402771 
	C725.839233,552.150757 729.281555,554.116821 731.643188,557.154053 
	C733.055664,558.970642 731.117737,560.585571 729.875671,561.824829 
	C721.353943,570.327576 711.040466,572.716736 699.564453,570.019531 
	C688.412048,567.398499 681.047791,560.328491 678.011047,549.321594 
	C674.302856,535.880676 679.558044,521.786926 690.276428,515.046021 
	C702.050293,507.641327 717.621155,508.913269 728.572266,518.409180 
z"/>
<path fill="#1e293b" opacity="1.000000" stroke="none" 
	d="
M259.508606,517.023560 
	C264.555481,514.076111 269.177155,510.341492 275.670258,510.619293 
	C279.448151,510.780975 281.302948,512.119446 281.022156,515.984070 
	C280.973999,516.646973 281.011810,517.315979 281.006714,517.982178 
	C280.945160,526.023499 280.945007,526.023499 273.182007,526.160522 
	C264.888031,526.306946 259.632477,531.945007 259.408203,541.300354 
	C259.224640,548.957397 259.200989,556.625488 259.394653,564.281372 
	C259.488190,567.978027 258.674225,569.655029 254.454208,569.508850 
	C242.458557,569.093140 243.827377,570.838135 243.766266,558.770691 
	C243.696259,544.947571 243.900955,531.121460 243.683044,517.301514 
	C243.612915,512.853516 245.235458,511.193359 249.515961,511.666870 
	C250.997025,511.830688 252.524338,511.826630 254.007324,511.673950 
	C257.840912,511.279358 259.680664,512.864868 259.508606,517.023560 
z"/>
<path fill="#1e293b" opacity="1.000000" stroke="none" 
	d="
M498.611603,254.400879 
	C502.841461,253.069748 504.811646,254.381409 504.328796,258.568207 
	C504.060913,260.890778 504.755371,262.315125 507.162842,263.020294 
	C508.750763,263.485382 509.309174,265.003662 509.186798,266.653351 
	C509.046753,268.541260 508.040009,269.788696 506.192810,270.146606 
	C504.335236,270.506531 502.550171,270.708496 502.375854,273.214844 
	C502.222443,275.421051 503.872955,275.802429 505.274597,276.713318 
	C508.385437,278.734924 508.137299,282.295654 504.647888,283.518372 
	C502.028137,284.436371 500.260559,285.359070 500.102631,288.477905 
	C499.958893,291.315582 498.020599,292.532990 495.246887,292.157196 
	C492.463928,291.780182 491.738281,290.026428 492.333496,287.461212 
	C492.648102,286.105194 492.795197,284.680847 490.930328,284.340088 
	C489.151672,284.015137 488.105042,284.964996 487.596954,286.608734 
	C487.547791,286.767792 487.471893,286.924957 487.457397,287.087341 
	C487.171844,290.289948 486.010437,292.667999 482.224365,292.192444 
	C479.657227,291.870026 479.114044,290.522003 479.178436,285.385498 
	C478.920166,284.405426 478.063629,284.231079 477.274414,284.002777 
	C475.278015,283.425415 474.103638,282.188385 474.197021,280.041412 
	C474.288696,277.934967 475.563568,276.879364 477.490997,276.170013 
	C480.591614,275.028778 480.552460,274.922424 481.170685,271.295410 
	C480.076385,269.729370 477.689392,270.518463 476.554260,268.780273 
	C474.914673,266.269714 476.275848,263.184082 479.754364,262.660187 
	C481.996521,262.322449 483.556091,261.962250 483.701813,259.290955 
	C483.869019,256.225372 484.812042,253.401642 488.662872,253.908279 
	C492.792847,254.451660 491.180389,257.812622 491.334778,260.258881 
	C491.365204,260.741211 491.508301,261.216461 491.617828,261.791443 
	C494.450043,263.028381 496.070160,262.093536 496.561462,259.128937 
	C496.832153,257.495667 496.771881,255.766068 498.611603,254.400879 
M494.479675,273.160645 
	C494.746857,270.900665 493.563202,269.834930 491.584015,270.614014 
	C489.154968,271.570190 489.107697,273.714294 489.712524,275.883118 
	C492.080017,276.580902 493.476349,275.797363 494.479675,273.160645 
z"/>
<path fill="#1e293b" opacity="1.000000" stroke="none" 
	d="
M539.754211,310.633301 
	C542.546692,310.588715 544.876526,310.456726 547.200500,310.523956 
	C549.844666,310.600464 551.749756,311.942963 552.029846,314.634094 
	C552.314209,317.366638 550.530396,318.993317 548.079041,319.637878 
	C546.502747,320.052368 544.791565,320.065369 543.140686,320.067413 
	C522.686218,320.092224 502.231781,320.083466 481.777344,320.076599 
	C480.614471,320.076202 479.431671,320.141907 478.292755,319.960144 
	C475.762421,319.556305 473.812378,318.283356 473.791687,315.488831 
	C473.769592,312.505859 475.626434,310.908508 478.491638,310.728302 
	C482.968506,310.446808 487.458069,310.191101 491.940887,310.212219 
	C507.723877,310.286530 523.506287,310.483490 539.754211,310.633301 
z"/>
<path fill="#1e293b" opacity="1.000000" stroke="none" 
	d="
M475.386108,341.733337 
	C472.840454,336.655884 474.199585,333.812042 479.225891,333.784821 
	C501.713593,333.663116 524.202332,333.733032 546.690735,333.744019 
	C549.514160,333.745422 551.772461,334.874207 551.992859,337.875397 
	C552.235229,341.177063 549.956238,342.604492 546.961670,342.859650 
	C544.642639,343.057281 542.302917,343.063568 539.972290,343.066254 
	C520.982056,343.088165 501.991852,343.101685 483.001648,343.081329 
	C480.532074,343.078674 477.972504,343.475494 475.386108,341.733337 
z"/>
<path fill="#1e293b" opacity="1.000000" stroke="none" 
	d="
M484.091797,356.582306 
	C498.040527,356.568878 511.501770,356.606628 524.962097,356.512390 
	C528.239990,356.489471 531.347412,356.782776 531.490295,360.792084 
	C531.651306,365.309662 528.160156,365.388092 524.827881,365.383606 
	C510.036621,365.363647 495.245270,365.372833 480.453979,365.379120 
	C477.368408,365.380432 473.941101,365.475739 473.870697,361.248230 
	C473.796753,356.805817 477.311310,356.645020 480.612518,356.607178 
	C481.609650,356.595764 482.606812,356.592102 484.091797,356.582306 
z"/>
<path fill="#2dd4bf" opacity="1.000000" stroke="none" 
	d="
M672.335083,309.009399 
	C676.264832,307.320007 679.987610,306.668396 683.880127,306.679443 
	C698.038147,306.719727 712.196533,306.629730 726.354370,306.695343 
	C742.380249,306.769623 753.254150,317.756439 753.307312,333.814331 
	C753.321594,338.136505 753.505737,342.456543 752.158020,346.686005 
	C748.473083,358.250580 739.328369,365.077515 727.127136,365.116455 
	C713.135742,365.161133 699.144043,365.138763 685.152466,365.116119 
	C668.314941,365.088867 657.705139,355.056000 656.851318,338.096832 
	C656.220764,325.571838 659.605652,314.979919 672.335083,309.009399 
M676.162903,333.630066 
	C676.635681,339.075623 679.142273,342.256409 683.121826,342.460846 
	C686.782654,342.648895 691.001892,338.981659 691.482117,335.194458 
	C691.974121,331.313568 688.827454,327.198425 684.820374,326.482635 
	C680.911987,325.784393 677.674927,328.175812 676.162903,333.630066 
M719.913757,338.356323 
	C720.409302,339.010162 720.784241,339.832001 721.420898,340.289429 
	C724.552856,342.539581 727.970398,342.940948 731.041199,340.498840 
	C734.290039,337.915161 734.721741,334.240540 733.061707,330.613312 
	C731.520142,327.245117 728.542297,325.676178 724.888550,326.574188 
	C720.818115,327.574554 718.960449,330.532104 719.127747,334.698761 
	C719.167114,335.679565 719.442383,336.650848 719.913757,338.356323 
z"/>
</svg>